# xmcd CD database file
#
# Track frame offsets:
#	150
#	28018
#	45432
#	69171
#	85359
#	107455
#	125736
#	136195
#	161756
#	177433
#	198575
#	221924
#	257176
#	286568
#	320285
#	332149
#	340940
#	344721
#
# Disc length: 4795 seconds
#
# Revision: 0
# Processed by: cddbd v1.4PL0 Copyright (c) Steve Scherf et al.
# Submitted via: CDex 1.50Beta7
#
DISCID=1312b912
DTITLE=Kitaro - HTV Music History Kitaro
DYEAR=2000
DGENRE=New Age
TTITLE0=Dawn - Rising Sun
TTITLE1=Shimmering Horizon
TTITLE2=Theme from Silk Road
TTITLE3=Lord Of Wind
TTITLE4=Earth Born
TTITLE5=Estrella
TTITLE6=Planet
TTITLE7=Dance Of Sarasvati
TTITLE8=Misty
TTITLE9=The Field
TTITLE10=Nageki
TTITLE11=A Passage Of Life
TTITLE12=Agreement
TTITLE13=Fiesta
TTITLE14=Entrance
TTITLE15=Please Come Visit My Village Of Hoa Qui
TTITLE16=Ahn Sends Le Ly Away
TTITLE17=Sozo
EXTD=YEAR: 2000
EXTT0=
EXTT1=
EXTT2=
EXTT3=
EXTT4=
EXTT5=
EXTT6=
EXTT7=
EXTT8=
EXTT9=
EXTT10=
EXTT11=
EXTT12=
EXTT13=
EXTT14=
EXTT15=
EXTT16=
EXTT17=
PLAYORDER=
